<svg xmlns="http://www.w3.org/2000/svg" width="13" height="13" viewBox="0 0 13 13">
  <g id="Group_38" data-name="Group 38" transform="translate(-121 -59)">
    <rect id="Rectangle_15" data-name="Rectangle 15" width="13" height="13" rx="3" transform="translate(121 59)" fill="#fff"/>
    <g id="noun-cross-1707162" transform="translate(-118.49 -110.49)">
      <path id="Path_4" data-name="Path 4" d="M242.3,172.3a.6.6,0,0,1,.851,0l2.835,2.835,2.835-2.835a.6.6,0,0,1,.851.851l-2.835,2.835,2.835,2.835a.6.6,0,0,1-.851.851l-2.835-2.835-2.835,2.835a.6.6,0,0,1-.851-.851l2.835-2.835-2.835-2.835A.6.6,0,0,1,242.3,172.3Z" fill="#fff"/>
    </g>
  </g>
</svg>
