<svg xmlns="http://www.w3.org/2000/svg" width="14.183" height="13.429" viewBox="0 0 14.183 13.429">
  <g id="Layer_2" data-name="Layer 2" transform="translate(-1 -1.804)">
    <path id="Path_197405" data-name="Path 197405" d="M14.336,6.549a1.853,1.853,0,0,1-1.461-2.506.87.87,0,0,0-.26-.979,6.973,6.973,0,0,0-2.08-1.206.875.875,0,0,0-.988.274,1.848,1.848,0,0,1-2.912,0,.875.875,0,0,0-.988-.274A7.006,7.006,0,0,0,3.709,2.946a.879.879,0,0,0-.274,1.007A1.844,1.844,0,0,1,1.9,6.487a.875.875,0,0,0-.766.7A6.685,6.685,0,0,0,1,8.515a6.77,6.77,0,0,0,.09,1.111.875.875,0,0,0,.771.733,1.844,1.844,0,0,1,1.5,2.6A.86.86,0,0,0,3.6,13.994a7.025,7.025,0,0,0,2.061,1.187.946.946,0,0,0,.3.052.87.87,0,0,0,.709-.369,1.83,1.83,0,0,1,1.513-.794,1.853,1.853,0,0,1,1.484.747.87.87,0,0,0,1.021.288,7.091,7.091,0,0,0,1.891-1.13.875.875,0,0,0,.255-1,1.844,1.844,0,0,1,1.48-2.548.875.875,0,0,0,.742-.719,6.855,6.855,0,0,0,.123-1.2,6.788,6.788,0,0,0-.118-1.264.865.865,0,0,0-.728-.7ZM10.455,8.515A2.364,2.364,0,1,1,8.091,6.151a2.364,2.364,0,0,1,2.364,2.364Z" transform="translate(0 0)" fill="#cbcbcb" opacity="0.301"/>
  </g>
</svg>
